inDegrees=no
num_controls=7
num_derivatives=13
num_iterations=110
num_multipliers=7
num_parameters=0
num_slacks=7
num_states=26
objective=0.344724
objective_accelerations=0.000000
objective_balance=0.002747
objective_effort=0.082481
objective_height=0.259496
objective_ligament=0.000000
solver_duration=1425.631192
status=Solve_Succeeded
success=true
DataType=double
version=3
OpenSimVersion=4.5
endheader
time	/jointset/ground_pelvis/pelvis_tilt/value	/jointset/ground_pelvis/pelvis_tx/value	/jointset/ground_pelvis/pelvis_ty/value	/jointset/hip_l/hip_flexion_l/value	/jointset/hip_l/hip_adduction_l/value	/jointset/hip_l/hip_rotation_l/value	/jointset/back/lumbar_extension/value	/jointset/patellofemoral_l/patellar_flexion_l/value	/jointset/knee_l/knee_flexion_l/value	/jointset/knee_l/knee_adduction_l/value	/jointset/knee_l/knee_rotation_l/value	/jointset/ankle_l/ankle_angle_l/value	/jointset/subtalar_l/subtalar_angle_l/value	/jointset/ground_pelvis/pelvis_tilt/speed	/jointset/ground_pelvis/pelvis_tx/speed	/jointset/ground_pelvis/pelvis_ty/speed	/jointset/hip_l/hip_flexion_l/speed	/jointset/hip_l/hip_adduction_l/speed	/jointset/hip_l/hip_rotation_l/speed	/jointset/back/lumbar_extension/speed	/jointset/patellofemoral_l/patellar_flexion_l/speed	/jointset/knee_l/knee_flexion_l/speed	/jointset/knee_l/knee_adduction_l/speed	/jointset/knee_l/knee_rotation_l/speed	/jointset/ankle_l/ankle_angle_l/speed	/jointset/subtalar_l/subtalar_angle_l/speed	/forceset/tau_hip_flexion_l	/forceset/tau_hip_adduction_l	/forceset/tau_hip_rotation_l	/forceset/tau_knee_flexion_l	/forceset/tau_ankle_angle_l	/forceset/tau_subtalar_angle_l	/forceset/tau_lumbar_extension	lambda_cid13_p0	lambda_cid13_p1	lambda_cid13_p2	lambda_cid13_p3	lambda_cid13_p4	lambda_cid13_p5	lambda_cid14_p0	/jointset/ground_pelvis/pelvis_tilt/accel	/jointset/ground_pelvis/pelvis_tx/accel	/jointset/ground_pelvis/pelvis_ty/accel	/jointset/hip_l/hip_flexion_l/accel	/jointset/hip_l/hip_adduction_l/accel	/jointset/hip_l/hip_rotation_l/accel	/jointset/back/lumbar_extension/accel	/jointset/patellofemoral_l/patellar_flexion_l/accel	/jointset/knee_l/knee_flexion_l/accel	/jointset/knee_l/knee_adduction_l/accel	/jointset/knee_l/knee_rotation_l/accel	/jointset/ankle_l/ankle_angle_l/accel	/jointset/subtalar_l/subtalar_angle_l/accel	gamma_cid13_p0	gamma_cid13_p1	gamma_cid13_p2	gamma_cid13_p3	gamma_cid13_p4	gamma_cid13_p5	gamma_cid14_p0
0.5	-0.0388705876652571	-0.09243130283179603	0.4111280114279487	2.094255685621116	-0.2893070802566896	0.1246302965630486	-0.9282691653486491	2.094363244633957	2.094363244633972	0.1742970817644823	-0.1743459114136854	0.1838566951650155	0.07186204996255326	0.3405094206142641	-0.1258411830807802	-0.053552054667915	-0.004536178375226092	0.03314431739368613	0.001530376004517398	-0.9286046330658131	-0.0006539368346161133	-0.0006539368346166032	0.006012404001141331	0.003231129988886771	-0.3531716218071181	-0.1112600050075325	-0.3821938468560143	-0.1058752127727458	-0.06144446701087908	-0.3946933767317277	0.301456959014854	0.0003655835814014007	0.5253033642672388	41.90498960064867	2.06282971462876	-11.70169915009838	-105.5844414751054	-890.6969493146253	-25.88078147397998	-0.01941201729619722	-6.023025842335335	2.47382345982473	0.9517823130257205	0.1760853539672178	-2.421397557023067	-3.635771032231036	15.50068572984891	0.2336571607383481	0.2336571607383346	2.301610301082662	-1.461278976446854	6.404457359966024	-0.08586149444350116	-4.535376009905636e-07	-1.208287795306746e-06	1.229552377004325e-06	-1.628449862962061e-07	8.031753736322633e-07	-1.206514874277248e-06	-2.91183030569615e-07
0.51	-0.03576690296258057	-0.09357145580902911	0.4106389865464135	2.094218864776349	-0.2890558034191522	0.1245563174639806	-0.9367951856645692	2.094363795238014	2.094363795238032	0.1744077648583143	-0.1743592357037474	0.1806406453305806	0.07079127879121615	0.2800417177571218	-0.1027036495310135	-0.04439251413256595	-0.002688434857824103	0.02119638825592622	-0.007618374108614612	-0.7778398017892565	0.0003314263343034876	0.0003314263343032317	0.01016860627723431	-0.00301403511947248	-0.2904795137938013	-0.09832494584466833	-0.3740379765021457	-0.1003989834819999	-0.06015227076042191	-0.3952933586286737	0.292404137973704	0.003430821117310456	0.5129632834184397	39.43138197459234	0.8923965727268025	-11.20405384151734	-94.81514388030389	-879.708242661779	-30.11998090000634	-0.01969918834024492	-6.086549940089297	2.156553664419502	0.8772939579406893	0.2100342542285026	0.03056034055534213	1.75175408885563	14.67832607590825	-0.03384908320418005	-0.03384908320414062	-1.420884806407947	0.2265543169128213	6.135232576237211	2.668759573069354	-3.138888799174466e-06	-4.406677948328129e-06	4.141663371170102e-06	5.462008956328574e-07	1.669847985439847e-06	-5.36924864407244e-06	-1.39329044190603e-06
0.52	-0.03327347677501191	-0.09449566637839116	0.4102374078770621	2.094204704447472	-0.2888015956864506	0.1246520870817232	-0.9438507688178537	2.094361234478126	2.094361234478124	0.1743813079754644	-0.1743484737259037	0.1780382455871234	0.06998697220179123	0.2184577175925534	-0.08265270150657424	-0.03606281223117769	-4.075196349856056e-06	0.03373049642647782	0.03548011936664999	-0.6345172005387324	-0.001276209623694282	-0.001276209623694242	-0.02141559133789515	0.008048383569899318	-0.2304416036115763	-0.05796708862508493	-0.3658821061482768	-0.09492275419125397	-0.05886007450996307	-0.3958933405256197	0.283351316932554	0.006496058653219551	0.5006232025696412	36.98751292424438	-0.2747258839262257	-10.71666821412049	-84.59799434079991	-868.5783610935963	-34.37749481195338	-0.01997680377860165	-6.246285303820539	1.856506354759247	0.7858145862335479	0.3434085827817011	2.475009904639224	6.813677685448295	14.01223972464241	-0.2849426646450748	-0.2849426646450761	-4.846469677161819	2.000237783099339	5.873617793747653	5.398698116900342	-7.967887708198918e-06	-7.244825695562518e-06	7.276195242002895e-06	1.943349177850689e-06	3.094855921402372e-06	-8.102493414584548e-06	-3.504007226418172e-06
0.53	-0.03140364559445553	-0.09523472897968387	0.4099141567675811	2.094213359493969	-0.2882487785162813	0.1252852292958832	-0.949508108414546	2.094338232707466	2.094338232707478	0.1740355898224897	-0.1739964445269894	0.1760376829893258	0.06979267077284046	0.1552063819024782	-0.06566928298339622	-0.02880928205484258	0.001063333344002099	0.08569988236334229	0.08554900747924858	-0.4980617647532524	-0.002891518613076075	-0.002891518613076059	-0.03741003256529196	0.07871609466283427	-0.1687756921181617	0.03019722734738367	-0.3561115539379799	-0.08629587036707791	-0.05951945873091597	-0.3948818944522774	0.2741419733943549	0.01297820490935541	0.4857361463773618	34.96205004045845	-3.19209612306768	-9.729763539133776	-76.70761982575628	-854.1117138427891	-42.71394619492161	-0.01998725760940308	-6.411351071304385	1.543375407356089	0.6626100438430089	-0.1138186610896657	7.885449852005616	3.26375243008339	13.29553861247868	-0.03400859847268116	-0.03400859847268991	1.571322123179532	12.05514898166542	6.445250461853202	12.18941221774685	-6.96626315602711e-06	-5.318687250240746e-06	5.578973550683347e-06	1.629454477101927e-06	2.631342684908715e-06	-5.277049407654679e-06	-3.144036976977098e-06
0.54	-0.03017568644473967	-0.09581913423449301	0.4096569385219654	2.094212243495715	-0.2869107581039838	0.1262511120023526	-0.9538342250319876	2.094312241130435	2.094312241130441	0.1738393779509786	-0.1724467159752861	0.1746802140334055	0.07081283527967966	0.09008331142426683	-0.05172123220986136	-0.02285623945813332	-0.001958284145710939	0.1907711448520292	0.1020282178285573	-0.3682726046886581	-0.001874170897975837	-0.00187417089797579	0.008485664955637092	0.2475882541267636	-0.1018228752361536	0.1849260985329221	-0.3463410017276826	-0.07766898654290187	-0.06017884295186785	-0.3938704483789351	0.2649326298561557	0.01946035116549122	0.4708490901850831	32.9678721686894	-6.020920209977922	-8.864373562414441	-69.2495835172016	-839.3822712119018	-51.07662702412197	-0.01999944243136244	-6.620632261447734	1.24943280483062	0.5257170703083743	-0.4743966232312968	13.09538521500369	0.09574213279031993	12.67898458046528	0.2415886762513393	0.2415886762513488	7.531558072503344	21.64112745729819	6.930998871466335	18.7116091595143	4.862639489576597e-07	1.878576344292158e-06	-1.464018039187784e-06	-5.775090558652153e-07	7.840176825074761e-08	3.698433246657873e-06	-5.054064741754102e-08
0.55	-0.02960108411407266	-0.09627700558388166	0.4094517156970302	2.094181920728959	-0.2843664466979985	0.1274155579708601	-0.9568994750368081	2.094303547717684	2.094303547717676	0.1741601829755766	-0.168976004504652	0.1739889559625274	0.07356555263884886	0.02525872893570014	-0.04013809549601434	-0.01850021068634517	-0.002672174092731615	0.3159588507004492	0.1445217855294171	-0.2462961276289453	-8.871009101239731e-06	-8.871009101011235e-06	0.0417351089474105	0.4375653261495622	-0.03850604445466462	0.362088177032542	-0.3342116487502423	-0.07476105242380368	-0.05830074601692408	-0.3903065595353606	0.2546555369594311	0.01945169489088021	0.4536991705803531	30.49360011412084	-5.438857456207033	-9.122887550832321	-59.83916624106565	-820.6874629906864	-50.75131822514323	-0.02046250404519845	-6.349611440709388	1.069639168948119	0.3435001847411694	0.3457670553026654	11.91214768615667	8.375157909147964	11.72916956570002	0.1370193773720823	0.1370193773721	-0.8691892089409707	16.32693663675382	5.721357486655104	16.68874556193692	3.66410674110763e-06	5.577032915998707e-06	-5.063791914149353e-06	-1.34766992284467e-06	-1.079983239274477e-06	8.257814832166361e-06	1.296075563030585e-06
